<svg width="24" height="24" viewBox="0 0 24 24" fill="none" xmlns="http://www.w3.org/2000/svg">
<path d="M19.8409 4.49997H16.0909V2.79543C16.0898 1.85452 15.3273 1.09199 14.3864 1.09088H9.61363C8.67272 1.09199 7.91019 1.85452 7.90909 2.79543V4.49997H4.15909C3.97082 4.49997 3.81818 4.65261 3.81818 4.84088V22.5682C3.81818 22.7564 3.97082 22.9091 4.15909 22.9091H19.8409C20.0292 22.9091 20.1818 22.7564 20.1818 22.5682V4.84088C20.1818 4.65261 20.0292 4.49997 19.8409 4.49997ZM8.5909 2.79543C8.5909 2.23058 9.04879 1.7727 9.61363 1.7727H14.3864C14.9512 1.7727 15.4091 2.23058 15.4091 2.79543V4.49997H8.5909V2.79543ZM19.5 22.2272H4.49999V5.18179H7.90909V6.54543C7.90909 6.73369 8.06173 6.88634 8.24999 6.88634C8.43826 6.88634 8.5909 6.73369 8.5909 6.54543V5.18179H15.4091V6.54543C15.4091 6.73369 15.5617 6.88634 15.75 6.88634C15.9383 6.88634 16.0909 6.73369 16.0909 6.54543V5.18179H19.5V22.2272Z" fill="white" stroke="white" stroke-width="0.3"/>
</svg>
