<svg width="24" height="24" viewBox="0 0 24 24" fill="none" xmlns="http://www.w3.org/2000/svg">
<path d="M16.909 2.00018C14.9545 2.0032 13.1235 2.9565 11.9999 4.55576C10.8763 2.9565 9.04537 2.0032 7.09082 2.00018C3.89444 2.00018 1.09082 4.97408 1.09082 8.36382C1.09082 11.6674 2.95623 15.07 6.48571 18.2038C8.121 19.6531 9.91486 20.9128 11.833 21.9595C11.9378 22.0135 12.0621 22.0135 12.1668 21.9595C14.0842 20.9128 15.8776 19.6529 17.5123 18.2038C21.0436 15.07 22.909 11.6674 22.909 8.36382C22.909 4.97408 20.1054 2.00018 16.909 2.00018V2.00018ZM11.9999 21.223C10.6643 20.486 1.81809 15.3368 1.81809 8.36382C1.81809 5.36133 4.28169 2.72746 7.09082 2.72746C8.99387 2.73083 10.7481 3.75746 11.6831 5.41513C11.7531 5.52202 11.8722 5.5863 11.9999 5.5863C12.1276 5.5863 12.2467 5.52202 12.3167 5.41513C13.2517 3.75746 15.0059 2.73083 16.909 2.72746C19.7181 2.72746 22.1817 5.36133 22.1817 8.36382C22.1817 15.3368 13.3355 20.486 11.9999 21.223Z" fill="#141211"/>
<path fill-rule="evenodd" clip-rule="evenodd" d="M0.940796 8.36379C0.940796 4.89966 3.80338 1.85016 7.0908 1.85016H7.09103C9.0247 1.85315 10.8403 2.76358 11.9999 4.30093C13.1294 2.80333 14.8816 1.90065 16.759 1.85221V1.85016H16.909C20.1964 1.85016 23.059 4.89966 23.059 8.36379C23.059 11.7261 21.1611 15.1662 17.6119 18.316L17.6118 18.3161C15.9686 19.7726 14.166 21.0391 12.2387 22.0912L12.2355 22.0929L12.2355 22.0928C12.0876 22.169 11.9121 22.169 11.7643 22.0928L11.7611 22.0912L11.7611 22.0912C9.83308 21.0391 8.02995 19.7728 6.3862 18.3161L6.38609 18.316C2.83866 15.1662 0.940796 11.7261 0.940796 8.36379ZM16.9091 2.15016C15.0034 2.15314 13.2181 3.08264 12.1226 4.64196L11.9999 4.81666L11.8771 4.64196C10.7816 3.08264 8.9964 2.15314 7.09068 2.15016C3.98539 2.15023 1.2408 5.0485 1.2408 8.36379C1.2408 11.6087 3.07372 14.9736 6.58517 18.0916C8.21151 19.5328 9.99549 20.7858 11.9031 21.8269C11.964 21.8577 12.0358 21.8577 12.0967 21.8269C14.0036 20.7858 15.787 19.5327 17.4128 18.0916C20.9261 14.9737 22.759 11.6087 22.759 8.36379C22.759 5.0485 20.0144 2.15023 16.9091 2.15016ZM16.9087 2.57743L16.909 2.57743C19.8102 2.57743 22.3317 5.28805 22.3317 8.36379C22.3317 11.9134 20.0823 14.9812 17.6947 17.2408C15.303 19.5044 12.745 20.9831 12.0724 21.3543L11.9999 21.3943L11.9274 21.3543C11.2547 20.9831 8.69679 19.5044 6.30503 17.2408C3.91746 14.9812 1.66807 11.9134 1.66807 8.36379C1.66807 5.28805 4.18955 2.57743 7.0908 2.57743H7.09106C9.0463 2.5809 10.8488 3.63469 11.811 5.33659C11.8535 5.39889 11.9242 5.43627 11.9999 5.43627C12.0756 5.43627 12.1463 5.39886 12.1888 5.33653C13.151 3.63467 14.9535 2.5809 16.9087 2.57743ZM7.09066 2.87743C4.37371 2.87751 1.96807 5.43461 1.96807 8.36379C1.96807 11.7872 4.1418 14.7805 6.51124 17.0229C8.79762 19.1868 11.2407 20.6273 11.9999 21.0514C12.759 20.6273 15.2022 19.1868 17.4885 17.0229C19.858 14.7805 22.0317 11.7872 22.0317 8.36379C22.0317 5.43461 19.6261 2.87751 16.9091 2.87743C15.0601 2.88076 13.3557 3.87823 12.4473 5.4888L12.4424 5.49743L12.4422 5.49725C12.3444 5.64656 12.1781 5.73627 11.9999 5.73627C11.8217 5.73627 11.6553 5.64656 11.5576 5.49725L11.5522 5.48896L11.5525 5.4888C10.644 3.87823 8.93963 2.88076 7.09066 2.87743Z" fill="#141211"/>
</svg>
