<svg width="63" height="36" viewBox="0 0 63 36" fill="none" xmlns="http://www.w3.org/2000/svg">
<rect width="63" height="36" rx="18" fill="#F4F3F2"/>
<path d="M15.852 20.156V19.268H19.32V20.156H15.852ZM21.668 23V22.172L24.62 19.076C25.004 18.684 25.288 18.308 25.472 17.948C25.664 17.588 25.76 17.216 25.76 16.832C25.76 16.36 25.612 16.004 25.316 15.764C25.028 15.516 24.604 15.392 24.044 15.392C23.612 15.392 23.204 15.472 22.82 15.632C22.444 15.784 22.084 16.02 21.74 16.34L21.344 15.488C21.672 15.168 22.084 14.912 22.58 14.72C23.084 14.528 23.612 14.432 24.164 14.432C25.028 14.432 25.696 14.632 26.168 15.032C26.64 15.424 26.876 15.988 26.876 16.724C26.876 17.26 26.744 17.772 26.48 18.26C26.224 18.74 25.844 19.236 25.34 19.748L22.76 22.364V22.052H27.224V23H21.668ZM31.9233 23.108C30.9553 23.108 30.2113 22.736 29.6913 21.992C29.1713 21.24 28.9113 20.164 28.9113 18.764C28.9113 17.34 29.1713 16.264 29.6913 15.536C30.2113 14.8 30.9553 14.432 31.9233 14.432C32.8993 14.432 33.6433 14.8 34.1553 15.536C34.6753 16.264 34.9353 17.336 34.9353 18.752C34.9353 20.16 34.6753 21.24 34.1553 21.992C33.6353 22.736 32.8913 23.108 31.9233 23.108ZM31.9233 22.16C32.5633 22.16 33.0393 21.884 33.3513 21.332C33.6713 20.78 33.8313 19.92 33.8313 18.752C33.8313 17.584 33.6713 16.732 33.3513 16.196C33.0393 15.652 32.5633 15.38 31.9233 15.38C31.2913 15.38 30.8153 15.652 30.4953 16.196C30.1753 16.732 30.0153 17.584 30.0153 18.752C30.0153 19.92 30.1753 20.78 30.4953 21.332C30.8153 21.884 31.2913 22.16 31.9233 22.16ZM39.6106 23H38.6506L43.6666 14.54H44.6386L39.6106 23ZM38.6866 19.604C38.0306 19.604 37.5146 19.376 37.1386 18.92C36.7706 18.456 36.5866 17.82 36.5866 17.012C36.5866 16.196 36.7746 15.564 37.1506 15.116C37.5266 14.66 38.0386 14.432 38.6866 14.432C39.3506 14.432 39.8666 14.664 40.2346 15.128C40.6106 15.584 40.7986 16.212 40.7986 17.012C40.7986 17.82 40.6106 18.456 40.2346 18.92C39.8666 19.376 39.3506 19.604 38.6866 19.604ZM38.6866 18.86C39.0546 18.86 39.3426 18.708 39.5506 18.404C39.7586 18.1 39.8626 17.636 39.8626 17.012C39.8626 16.396 39.7586 15.94 39.5506 15.644C39.3426 15.34 39.0546 15.188 38.6866 15.188C38.3266 15.188 38.0426 15.336 37.8346 15.632C37.6266 15.928 37.5226 16.388 37.5226 17.012C37.5226 17.644 37.6266 18.112 37.8346 18.416C38.0426 18.712 38.3266 18.86 38.6866 18.86ZM44.5906 23.108C43.9346 23.108 43.4186 22.88 43.0426 22.424C42.6746 21.96 42.4906 21.324 42.4906 20.516C42.4906 19.7 42.6786 19.068 43.0546 18.62C43.4306 18.164 43.9426 17.936 44.5906 17.936C45.2466 17.936 45.7626 18.164 46.1386 18.62C46.5146 19.076 46.7026 19.708 46.7026 20.516C46.7026 21.324 46.5146 21.96 46.1386 22.424C45.7626 22.88 45.2466 23.108 44.5906 23.108ZM44.5906 22.352C44.9586 22.352 45.2466 22.204 45.4546 21.908C45.6626 21.604 45.7666 21.14 45.7666 20.516C45.7666 19.892 45.6626 19.432 45.4546 19.136C45.2466 18.84 44.9586 18.692 44.5906 18.692C44.2306 18.692 43.9466 18.84 43.7386 19.136C43.5306 19.432 43.4266 19.892 43.4266 20.516C43.4266 21.14 43.5306 21.604 43.7386 21.908C43.9466 22.204 44.2306 22.352 44.5906 22.352Z" fill="#141211"/>
</svg>
